<svg aria-hidden="true" style="position:absolute;width:0;height:0;overflow:hidden" xmlns="http://www.w3.org/2000/svg">
  <defs>
    <symbol id="icon-close" width='30' height='30'>
      <path d='M8 8L22 22' stroke='currentColor' stroke-width='2'></path>
      <path d='M8 22L22 8' stroke='currentColor' stroke-width='2'></path>
    </symbol>
    <symbol id="modal-team-close" viewBox="0 0 28 28">
      <path d='M8 8L22 22' stroke='currentColor' stroke-width='2'></path>
      <path d='M8 22L22 8' stroke='currentColor' stroke-width='2'></path>
    </symbol>
    <symbol id="icon-film" viewBox="0 0 32 32">
      <path fill="none" stroke="#818181" style="stroke:var(--color1, #818181)" stroke-linejoin="round" stroke-linecap="round" stroke-width="2.667" d="M26.427 2.667H5.574a2.907 2.907 0 0 0-2.907 2.907v20.853a2.907 2.907 0 0 0 2.907 2.907v0h20.853a2.907 2.907 0 0 0 2.907-2.907v0V5.574a2.907 2.907 0 0 0-2.907-2.907v0zm-17.094 0v26.667M22.667 2.667v26.667M2.667 16h26.667M2.667 9.333h6.667M2.667 22.667h6.667m13.333 0h6.667M22.667 9.333h6.667"/>
    </symbol>
    <symbol id="icon-search" viewBox="0 0 32 32">
      <path fill="none" stroke-linejoin="round" stroke-linecap="round" stroke-width="2.667" d="M14.667 25.333c5.891 0 10.667-4.776 10.667-10.667S20.558 3.999 14.667 3.999v0C8.776 3.999 4 8.775 4 14.666s4.776 10.667 10.667 10.667v0zM28 28l-5.8-5.8"/>
    </symbol>
    <symbol id="icon-heart" viewBox="0 0 34 32">
      <path fill="#ff6b08" style="fill:var(--color3, #ff6b08)" d="m17.231 31.705-2.412-2.412C5.859 21.367.001 16.025.001 9.478.001 4.136 4.136.001 9.478.001c2.929 0 5.858 1.378 7.754 3.618 1.895-2.24 4.825-3.618 7.754-3.618 5.342 0 9.477 4.135 9.477 9.477 0 6.548-5.858 11.889-14.818 19.815l-2.412 2.412z"/>
    </symbol>
    <symbol id="icon-youtube" viewBox="0 0 32 32">
      <path fill="#f00" style="fill: var(--color1, #f00)" d="M31.327 8.273c-0.386-1.353-1.431-2.398-2.756-2.777l-0.028-0.007c-2.493-0.668-12.528-0.668-12.528-0.668s-10.009-0.013-12.528 0.668c-1.353 0.386-2.398 1.431-2.777 2.756l-0.007 0.028c-0.443 2.281-0.696 4.903-0.696 7.585 0 0.054 0 0.109 0 0.163l-0-0.008c-0 0.037-0 0.082-0 0.126 0 2.682 0.253 5.304 0.737 7.845l-0.041-0.26c0.386 1.353 1.431 2.398 2.756 2.777l0.028 0.007c2.491 0.669 12.528 0.669 12.528 0.669s10.008 0 12.528-0.669c1.353-0.386 2.398-1.431 2.777-2.756l0.007-0.028c0.425-2.233 0.668-4.803 0.668-7.429 0-0.099-0-0.198-0.001-0.297l0 0.015c0.001-0.092 0.001-0.201 0.001-0.31 0-2.626-0.243-5.196-0.708-7.687l0.040 0.258zM12.812 20.801v-9.591l8.352 4.803z">
      </path>
    </symbol>
    <symbol id="icon-twoArrowUp" viewBox="0 0 32 32">
      <path d="M26.8 17.1c-2.95-2.95-5.95-5.95-8.9-8.9-0.4-0.4-0.85-0.85-1.25-1.25s-1.050-0.4-1.4 0c-2.95 2.95-5.95 5.95-8.9 8.9-0.4 0.4-0.85 0.85-1.25 1.25-0.9 0.9 0.5 2.35 1.4 1.4 2.95-2.95 5.95-5.95 8.9-8.9 0.2-0.2 0.35-0.35 0.55-0.55 2.75 2.75 5.5 5.5 8.2 8.2 0.4 0.4 0.85 0.85 1.25 1.25 0.9 0.9 2.3-0.5 1.4-1.4z"></path>
      <path d="M17.85 15.1c-0.4-0.4-0.8-0.8-1.2-1.2s-1.050-0.4-1.4 0c-2.8 2.8-5.65 5.65-8.45 8.45-0.4 0.4-0.8 0.8-1.2 1.2-0.9 0.9 0.5 2.35 1.4 1.4 2.8-2.8 5.65-5.65 8.45-8.45 0.15-0.15 0.35-0.35 0.5-0.5 2.55 2.55 5.15 5.15 7.7 7.7 0.4 0.4 0.8 0.8 1.2 1.2 0.9 0.9 2.35-0.5 1.4-1.4-2.8-2.8-5.6-5.6-8.4-8.4z"></path>
    </symbol>
    <symbol fill="none" id="icon-queue" viewBox="0 0 24 24"><path d="M4 6H2v14c0 1.1.9 2 2 2h14v-2H4V6Zm16-4H8c-1.1 0-2 .9-2 2v12c0 1.1.9 2 2 2h12c1.1 0 2-.9 2-2V4c0-1.1-.9-2-2-2Zm0 14H8V4h12v12ZM12 5.5v9l6-4.5-6-4.5Z" fill="currentColor"/></symbol>
    <symbol fill="none" id="icon-watched" viewBox="0 0 24 24"><path d="M12 4.5C7 4.5 2.73 7.61 1 12c1.73 4.39 6 7.5 11 7.5s9.27-3.11 11-7.5c-1.73-4.39-6-7.5-11-7.5ZM12 17c-2.76 0-5-2.24-5-5s2.24-5 5-5 5 2.24 5 5-2.24 5-5 5Zm0-8c-1.66 0-3 1.34-3 3s1.34 3 3 3 3-1.34 3-3-1.34-3-3-3Z" fill="currentColor"/></symbol>
    <symbol fill="none" id="icon-eye" viewBox="0 0 23 17"><path fill-rule="evenodd" clip-rule="evenodd" d="M22.092 10.978c-7.156 7.4-18.652 4.896-21.498 1.08A13.415 13.415 0 0 1 2.352 8.91L0 6.748l1.094-1.16 2.25 2.168a10.716 10.716 0 0 1 2.278-1.778L3.75 2.816l1.412-.8 1.832 3.3c.969-.382 1.99-.611 3.03-.68L10.062 1h1.578l-.114 3.644a11.8 11.8 0 0 1 3.272.734l1.728-3.576 1.378.6-1.6 3.628a16.027 16.027 0 0 1 2.526 1.644l2.096-2.712 1.334 1.072-2.212 2.706a21.464 21.464 0 0 1 2.044 2.238ZM5.11 8.27a11.762 11.762 0 0 0-2.092 2.322l.456 1.884a13.147 13.147 0 0 0 3.424 1.54c-1.64-1.418-2.216-3.69-1.788-5.746Zm8.84-1.588c-2.146-.716-4.286-.708-6.238.042-2.424 2.43-1.478 7.616 3.264 7.616 4.35 0 5.378-5.246 2.974-7.658Zm2.5 1.168c.514 1.95.12 4.17-1.168 5.698a20.325 20.325 0 0 0 4.832-2.672A17.152 17.152 0 0 0 16.45 7.85Zm-5.524 4.87c-3.834 0-3.66-5.478-.062-5.478 3.598 0 3.554 5.478.062 5.478Z" fill="currentColor"/></symbol>
  </defs>
</svg>