<svg id="linkedin" width="22" height="22" viewBox="0 0 22 22" fill="none" xmlns="http://www.w3.org/2000/svg">
<path d="M19.0854 1.375H3.01984C2.14199 1.375 1.375 2.00664 1.375 2.87418V18.9754C1.375 19.8477 2.14199 20.625 3.01984 20.625H19.0807C19.9633 20.625 20.625 19.8425 20.625 18.9754V2.87418C20.6302 2.00664 19.9633 1.375 19.0854 1.375ZM7.34207 17.4208H4.58434V8.84641H7.34207V17.4208ZM6.05859 7.54273H6.03883C5.15625 7.54273 4.58476 6.88574 4.58476 6.06332C4.58476 5.22586 5.17129 4.58434 6.07363 4.58434C6.97598 4.58434 7.52812 5.22113 7.54789 6.06332C7.54746 6.88574 6.97598 7.54273 6.05859 7.54273ZM17.4208 17.4208H14.6631V12.7325C14.6631 11.6093 14.2618 10.8419 13.264 10.8419C12.5018 10.8419 12.0506 11.3575 11.8499 11.8598C11.7747 12.0403 11.7545 12.2861 11.7545 12.537V17.4208H8.9968V8.84641H11.7545V10.0396C12.1559 9.46816 12.7828 8.64574 14.2416 8.64574C16.0518 8.64574 17.4212 9.83898 17.4212 12.4115L17.4208 17.4208Z" fill="black"/>
</svg>
