<!-- Generated by IcoMoon.io -->
<svg version="1.1" xmlns="http://www.w3.org/2000/svg" width="32" height="32" viewBox="0 0 32 32">
<title>night</title>
<path d="M13.554 0.187c-6.968 1.381-12.218 6.65-13.322 13.376-0.146 0.893-0.206 3.029-0.107 3.973 0.622 5.856 4.608 10.962 10.315 13.213 2.202 0.875 4.218 1.25 6.656 1.25 2.018 0 3.525-0.232 5.416-0.819 1.752-0.549 3.742-1.574 5.256-2.706 1.152-0.864 3.008-2.787 3.214-3.338 0.053-0.127 0.084-0.275 0.084-0.431 0-0.372-0.178-0.702-0.452-0.911l-0.003-0.002c-0.317-0.256-0.648-0.312-1.309-0.237-0.734 0.086-2.533 0.086-3.253 0.006-4.352-0.512-8.165-2.738-10.518-6.144-3.128-4.525-3.155-10.387-0.061-14.875 0.622-0.907 0.675-1.013 0.675-1.357-0.006-0.512-0.272-0.925-0.714-1.099-0.325-0.131-0.88-0.101-1.878 0.099zM11.981 3.637c-0.526 1.153-0.938 2.493-1.171 3.894l-0.013 0.095c-0.165 1.011-0.165 3.669 0 4.674 1.058 6.307 5.739 11.363 12.144 13.107 0.928 0.256 2.368 0.499 3.294 0.568l0.614 0.045-0.152 0.155c-0.245 0.245-1.554 1.152-2.168 1.501-2.138 1.23-4.702 1.956-7.435 1.956-2.309 0-4.498-0.518-6.455-1.445l0.092 0.039c-4.312-2.006-7.194-5.675-7.987-10.163-0.152-0.85-0.198-2.506-0.106-3.406 0.496-4.606 3.331-8.643 7.576-10.787 0.682-0.344 1.965-0.88 2.003-0.837 0.014 0.011-0.093 0.288-0.237 0.605z"></path>
<path d="M21.619 4.437c-0.272 0.17-0.541 0.314-0.602 0.314-0.256-0.044-0.477-0.099-0.691-0.167l0.037 0.010c-0.667-0.187-0.694-0.187-0.859-0.032-0.205 0.195-0.16 0.382 0.198 0.901 0.186 0.262 0.331 0.544 0.331 0.624 0 0.082-0.067 0.344-0.139 0.576-0.173 0.525-0.179 0.682-0.027 0.837 0.186 0.195 0.384 0.15 0.933-0.187 0.278-0.176 0.576-0.312 0.654-0.312 0.086 0 0.336 0.056 0.568 0.118 0.629 0.181 0.787 0.187 0.946 0.032 0.179-0.17 0.12-0.406-0.23-0.912-0.378-0.544-0.378-0.526-0.126-1.314 0.146-0.456 0.152-0.48 0.048-0.637-0.181-0.256-0.458-0.219-1.040 0.149zM30.136 14.419c-0.063 0.070-0.113 0.153-0.144 0.245l-0.001 0.005c-0.074 0.224-0.298 0.443-0.496 0.488-0.118 0.026-0.221 0.080-0.305 0.156l0.001-0.001c-0.245 0.256-0.080 0.645 0.304 0.72 0.198 0.043 0.422 0.262 0.496 0.486 0.066 0.219 0.23 0.357 0.422 0.357 0.245 0 0.378-0.112 0.483-0.406 0.072-0.213 0.144-0.275 0.464-0.426 0.608-0.28 0.6-0.618-0.021-0.906-0.298-0.144-0.371-0.206-0.443-0.419-0.041-0.13-0.11-0.241-0.199-0.331l0 0c-0.16-0.106-0.443-0.093-0.562 0.032z"></path>
</svg>
