<svg aria-hidden="true" style="position:absolute;width:0;height:0;overflow:hidden" xmlns="http://www.w3.org/2000/svg">
  <defs>
    <symbol id="icon-close" viewBox="0 0 30 30" fill="none" xmlns="http://www.w3.org/2000/svg">
      <path d="M8 8L22 22" stroke="black" stroke-width="2"/>
      <path d="M8 22L22 8" stroke="black" stroke-width="2"/>
    </symbol>
    <symbol id="icon-film" viewBox="0 0 32 32">
      <path fill="none" stroke="#818181" style="stroke:var(--color1, #818181)" stroke-linejoin="round" stroke-linecap="round" stroke-width="2.667" d="M26.427 2.667H5.574a2.907 2.907 0 0 0-2.907 2.907v20.853a2.907 2.907 0 0 0 2.907 2.907v0h20.853a2.907 2.907 0 0 0 2.907-2.907v0V5.574a2.907 2.907 0 0 0-2.907-2.907v0zm-17.094 0v26.667M22.667 2.667v26.667M2.667 16h26.667M2.667 9.333h6.667M2.667 22.667h6.667m13.333 0h6.667M22.667 9.333h6.667"/>
    </symbol>
    <symbol id="icon-search" viewBox="0 0 32 32">
      <path fill="none" stroke="#fff" style="stroke:var(--color2, #fff)" stroke-linejoin="round" stroke-linecap="round" stroke-width="2.667" d="M14.667 25.333c5.891 0 10.667-4.776 10.667-10.667S20.558 3.999 14.667 3.999v0C8.776 3.999 4 8.775 4 14.666s4.776 10.667 10.667 10.667v0zM28 28l-5.8-5.8"/>
    </symbol>
    <symbol id="icon-heart" viewBox="0 0 34 32">
      <path fill="#ff6b08" style="fill:var(--color3, #ff6b08)" d="m17.231 31.705-2.412-2.412C5.859 21.367.001 16.025.001 9.478.001 4.136 4.136.001 9.478.001c2.929 0 5.858 1.378 7.754 3.618 1.895-2.24 4.825-3.618 7.754-3.618 5.342 0 9.477 4.135 9.477 9.477 0 6.548-5.858 11.889-14.818 19.815l-2.412 2.412z"/>
    </symbol>


    <!-- Modal team -->
    <symbol id="linkedin" width="22" height="22" viewBox="0 0 22 22" fill="none" xmlns="http://www.w3.org/2000/svg">
      <path d="M19.0854 1.375H3.01984C2.14199 1.375 1.375 2.00664 1.375 2.87418V18.9754C1.375 19.8477 2.14199 20.625 3.01984 20.625H19.0807C19.9633 20.625 20.625 19.8425 20.625 18.9754V2.87418C20.6302 2.00664 19.9633 1.375 19.0854 1.375ZM7.34207 17.4208H4.58434V8.84641H7.34207V17.4208ZM6.05859 7.54273H6.03883C5.15625 7.54273 4.58476 6.88574 4.58476 6.06332C4.58476 5.22586 5.17129 4.58434 6.07363 4.58434C6.97598 4.58434 7.52812 5.22113 7.54789 6.06332C7.54746 6.88574 6.97598 7.54273 6.05859 7.54273ZM17.4208 17.4208H14.6631V12.7325C14.6631 11.6093 14.2618 10.8419 13.264 10.8419C12.5018 10.8419 12.0506 11.3575 11.8499 11.8598C11.7747 12.0403 11.7545 12.2861 11.7545 12.537V17.4208H8.9968V8.84641H11.7545V10.0396C12.1559 9.46816 12.7828 8.64574 14.2416 8.64574C16.0518 8.64574 17.4212 9.83898 17.4212 12.4115L17.4208 17.4208Z" fill="black"/>
    </symbol>
    <symbol id="github" width="22" height="22" viewBox="0 0 22 22" fill="none" xmlns="http://www.w3.org/2000/svg">
      <path d="M11 1.375C5.68477 1.375 1.375 5.79648 1.375 11.2449C1.375 15.6062 4.13359 19.3016 7.95781 20.6078C8.01145 20.6195 8.0662 20.6252 8.12109 20.625C8.47773 20.625 8.61523 20.3629 8.61523 20.1352C8.61523 19.8988 8.60664 19.2801 8.60234 18.4551C8.28396 18.5297 7.95825 18.5686 7.63125 18.5711C5.7793 18.5711 5.3582 17.1316 5.3582 17.1316C4.91992 15.993 4.28828 15.6879 4.28828 15.6879C3.45039 15.0992 4.28398 15.082 4.34844 15.082H4.35273C5.31953 15.168 5.82656 16.1047 5.82656 16.1047C6.30781 16.9469 6.95234 17.1832 7.52812 17.1832C7.90884 17.1756 8.28367 17.0877 8.62813 16.9254C8.71406 16.2895 8.96328 15.8555 9.23828 15.6062C7.10273 15.357 4.85547 14.5105 4.85547 10.7293C4.85547 9.65078 5.2293 8.76992 5.84375 8.08242C5.74492 7.8332 5.41406 6.82773 5.93828 5.46992C6.0086 5.4531 6.08087 5.44587 6.15312 5.44844C6.50117 5.44844 7.2875 5.58164 8.58516 6.48398C10.1619 6.04283 11.8295 6.04283 13.4062 6.48398C14.7039 5.58164 15.4902 5.44844 15.8383 5.44844C15.9105 5.44587 15.9828 5.4531 16.0531 5.46992C16.5773 6.82773 16.2465 7.8332 16.1477 8.08242C16.7621 8.77422 17.1359 9.65508 17.1359 10.7293C17.1359 14.5191 14.8844 15.3527 12.7402 15.5977C13.084 15.9027 13.3934 16.5043 13.3934 17.4238C13.3934 18.743 13.3805 19.8086 13.3805 20.1309C13.3805 20.3629 13.5137 20.625 13.8703 20.625C13.928 20.6253 13.9856 20.6195 14.0422 20.6078C17.8707 19.3016 20.625 15.602 20.625 11.2449C20.625 5.79648 16.3152 1.375 11 1.375Z" fill="black"/>
    </symbol>

  </defs>
</svg>