<svg aria-hidden="true" style="position:absolute;width:0;height:0;overflow:hidden" xmlns="http://www.w3.org/2000/svg">
  <defs>
    <symbol id="icon-close" width='30' height='30'>
      <path d='M8 8L22 22' stroke='black' stroke-width='2'></path>
      <path d='M8 22L22 8' stroke='black' stroke-width='2'></path>
    </symbol>
    <symbol id="icon-film" viewBox="0 0 32 32">
      <path fill="none" stroke="#818181" style="stroke:var(--color1, #818181)" stroke-linejoin="round" stroke-linecap="round" stroke-width="2.667" d="M26.427 2.667H5.574a2.907 2.907 0 0 0-2.907 2.907v20.853a2.907 2.907 0 0 0 2.907 2.907v0h20.853a2.907 2.907 0 0 0 2.907-2.907v0V5.574a2.907 2.907 0 0 0-2.907-2.907v0zm-17.094 0v26.667M22.667 2.667v26.667M2.667 16h26.667M2.667 9.333h6.667M2.667 22.667h6.667m13.333 0h6.667M22.667 9.333h6.667"/>
    </symbol>
    <symbol id="icon-search" viewBox="0 0 32 32">
      <path fill="none" stroke-linejoin="round" stroke-linecap="round" stroke-width="2.667" d="M14.667 25.333c5.891 0 10.667-4.776 10.667-10.667S20.558 3.999 14.667 3.999v0C8.776 3.999 4 8.775 4 14.666s4.776 10.667 10.667 10.667v0zM28 28l-5.8-5.8"/>
    </symbol>
    <symbol id="icon-heart" viewBox="0 0 34 32">
      <path fill="#ff6b08" style="fill:var(--color3, #ff6b08)" d="m17.231 31.705-2.412-2.412C5.859 21.367.001 16.025.001 9.478.001 4.136 4.136.001 9.478.001c2.929 0 5.858 1.378 7.754 3.618 1.895-2.24 4.825-3.618 7.754-3.618 5.342 0 9.477 4.135 9.477 9.477 0 6.548-5.858 11.889-14.818 19.815l-2.412 2.412z"/>
    </symbol>
    <symbol id="icon-youtube" viewBox="0 0 32 32">
      <path fill="#f00" style="fill: var(--color1, #f00)" d="M31.327 8.273c-0.386-1.353-1.431-2.398-2.756-2.777l-0.028-0.007c-2.493-0.668-12.528-0.668-12.528-0.668s-10.009-0.013-12.528 0.668c-1.353 0.386-2.398 1.431-2.777 2.756l-0.007 0.028c-0.443 2.281-0.696 4.903-0.696 7.585 0 0.054 0 0.109 0 0.163l-0-0.008c-0 0.037-0 0.082-0 0.126 0 2.682 0.253 5.304 0.737 7.845l-0.041-0.26c0.386 1.353 1.431 2.398 2.756 2.777l0.028 0.007c2.491 0.669 12.528 0.669 12.528 0.669s10.008 0 12.528-0.669c1.353-0.386 2.398-1.431 2.777-2.756l0.007-0.028c0.425-2.233 0.668-4.803 0.668-7.429 0-0.099-0-0.198-0.001-0.297l0 0.015c0.001-0.092 0.001-0.201 0.001-0.31 0-2.626-0.243-5.196-0.708-7.687l0.040 0.258zM12.812 20.801v-9.591l8.352 4.803z">
      </path>
    </symbol>
    <symbol id="icon-twoArrowUp" viewBox="0 0 32 32">
      <path d="M26.8 17.1c-2.95-2.95-5.95-5.95-8.9-8.9-0.4-0.4-0.85-0.85-1.25-1.25s-1.050-0.4-1.4 0c-2.95 2.95-5.95 5.95-8.9 8.9-0.4 0.4-0.85 0.85-1.25 1.25-0.9 0.9 0.5 2.35 1.4 1.4 2.95-2.95 5.95-5.95 8.9-8.9 0.2-0.2 0.35-0.35 0.55-0.55 2.75 2.75 5.5 5.5 8.2 8.2 0.4 0.4 0.85 0.85 1.25 1.25 0.9 0.9 2.3-0.5 1.4-1.4z"></path>
      <path d="M17.85 15.1c-0.4-0.4-0.8-0.8-1.2-1.2s-1.050-0.4-1.4 0c-2.8 2.8-5.65 5.65-8.45 8.45-0.4 0.4-0.8 0.8-1.2 1.2-0.9 0.9 0.5 2.35 1.4 1.4 2.8-2.8 5.65-5.65 8.45-8.45 0.15-0.15 0.35-0.35 0.5-0.5 2.55 2.55 5.15 5.15 7.7 7.7 0.4 0.4 0.8 0.8 1.2 1.2 0.9 0.9 2.35-0.5 1.4-1.4-2.8-2.8-5.6-5.6-8.4-8.4z"></path>
    </symbol>
    <symbol id="icon-day" viewBox="0 0 32 32">
      <path d="M4 15h-3c-0.552 0-1 0.448-1 1s0.448 1 1 1h3c0.552 0 1-0.448 1-1s-0.448-1-1-1zM16 5c0.552 0 1-0.448 1-1v-3c0-0.552-0.448-1-1-1s-1 0.448-1 1v3c0 0.552 0.448 1 1 1zM25.621 7.78l2.101-2.101c0.387-0.387 0.387-1.014 0-1.401s-1.014-0.387-1.401 0l-2.101 2.101c-0.387 0.387-0.387 1.014 0 1.401s1.014 0.387 1.401 0zM7.41 23.19l-2.101 2.101c-0.387 0.387-0.387 1.014 0 1.401s1.014 0.387 1.401 0l2.101-2.101c0.387-0.387 0.387-1.014 0-1.401s-1.014-0.387-1.401 0zM6.808 8.222c0.391 0.391 1.024 0.391 1.414 0s0.39-1.024 0-1.414l-2.121-2.122c-0.391-0.391-1.024-0.391-1.414 0s-0.391 1.024 0 1.414l2.121 2.122zM16 27c-0.552 0-1 0.448-1 1v3c0 0.552 0.448 1 1 1s1-0.448 1-1v-3c0-0.552-0.448-1-1-1zM25.192 23.778c-0.391-0.391-1.024-0.391-1.414 0s-0.391 1.024 0 1.414l2.121 2.121c0.391 0.391 1.024 0.391 1.414 0s0.391-1.024 0-1.414l-2.121-2.121zM31 15h-3c-0.552 0-1 0.448-1 1s0.448 1 1 1h3c0.552 0 1-0.448 1-1s-0.448-1-1-1zM16 6.994c-4.974 0-9.006 4.032-9.006 9.006s4.032 9.006 9.006 9.006c4.974 0 9.006-4.032 9.006-9.006s-4.032-9.006-9.006-9.006zM16 22.998c-3.865 0-6.998-3.133-6.998-6.998s3.133-6.998 6.998-6.998c3.865 0 6.998 3.133 6.998 6.998s-3.133 6.998-6.998 6.998z"></path>
    </symbol>
    <symbol id="icon-night" viewBox="0 0 32 32">
      <path d="M13.554 0.187c-6.968 1.381-12.218 6.65-13.322 13.376-0.146 0.893-0.206 3.029-0.107 3.973 0.622 5.856 4.608 10.962 10.315 13.213 2.202 0.875 4.218 1.25 6.656 1.25 2.018 0 3.525-0.232 5.416-0.819 1.752-0.549 3.742-1.574 5.256-2.706 1.152-0.864 3.008-2.787 3.214-3.338 0.053-0.127 0.084-0.275 0.084-0.431 0-0.372-0.178-0.702-0.452-0.911l-0.003-0.002c-0.317-0.256-0.648-0.312-1.309-0.237-0.734 0.086-2.533 0.086-3.253 0.006-4.352-0.512-8.165-2.738-10.518-6.144-3.128-4.525-3.155-10.387-0.061-14.875 0.622-0.907 0.675-1.013 0.675-1.357-0.006-0.512-0.272-0.925-0.714-1.099-0.325-0.131-0.88-0.101-1.878 0.099zM11.981 3.637c-0.526 1.153-0.938 2.493-1.171 3.894l-0.013 0.095c-0.165 1.011-0.165 3.669 0 4.674 1.058 6.307 5.739 11.363 12.144 13.107 0.928 0.256 2.368 0.499 3.294 0.568l0.614 0.045-0.152 0.155c-0.245 0.245-1.554 1.152-2.168 1.501-2.138 1.23-4.702 1.956-7.435 1.956-2.309 0-4.498-0.518-6.455-1.445l0.092 0.039c-4.312-2.006-7.194-5.675-7.987-10.163-0.152-0.85-0.198-2.506-0.106-3.406 0.496-4.606 3.331-8.643 7.576-10.787 0.682-0.344 1.965-0.88 2.003-0.837 0.014 0.011-0.093 0.288-0.237 0.605z"></path>
      <path d="M21.619 4.437c-0.272 0.17-0.541 0.314-0.602 0.314-0.256-0.044-0.477-0.099-0.691-0.167l0.037 0.010c-0.667-0.187-0.694-0.187-0.859-0.032-0.205 0.195-0.16 0.382 0.198 0.901 0.186 0.262 0.331 0.544 0.331 0.624 0 0.082-0.067 0.344-0.139 0.576-0.173 0.525-0.179 0.682-0.027 0.837 0.186 0.195 0.384 0.15 0.933-0.187 0.278-0.176 0.576-0.312 0.654-0.312 0.086 0 0.336 0.056 0.568 0.118 0.629 0.181 0.787 0.187 0.946 0.032 0.179-0.17 0.12-0.406-0.23-0.912-0.378-0.544-0.378-0.526-0.126-1.314 0.146-0.456 0.152-0.48 0.048-0.637-0.181-0.256-0.458-0.219-1.040 0.149zM30.136 14.419c-0.063 0.070-0.113 0.153-0.144 0.245l-0.001 0.005c-0.074 0.224-0.298 0.443-0.496 0.488-0.118 0.026-0.221 0.080-0.305 0.156l0.001-0.001c-0.245 0.256-0.080 0.645 0.304 0.72 0.198 0.043 0.422 0.262 0.496 0.486 0.066 0.219 0.23 0.357 0.422 0.357 0.245 0 0.378-0.112 0.483-0.406 0.072-0.213 0.144-0.275 0.464-0.426 0.608-0.28 0.6-0.618-0.021-0.906-0.298-0.144-0.371-0.206-0.443-0.419-0.041-0.13-0.11-0.241-0.199-0.331l0 0c-0.16-0.106-0.443-0.093-0.562 0.032z"></path>
    </symbol>
    <symbol fill="none" id="icon-queue" viewBox="0 0 24 24"><path d="M4 6H2v14c0 1.1.9 2 2 2h14v-2H4V6Zm16-4H8c-1.1 0-2 .9-2 2v12c0 1.1.9 2 2 2h12c1.1 0 2-.9 2-2V4c0-1.1-.9-2-2-2Zm0 14H8V4h12v12ZM12 5.5v9l6-4.5-6-4.5Z" fill="currentColor"/></symbol>
    <symbol fill="none" id="icon-watched" viewBox="0 0 24 24"><path d="M12 4.5C7 4.5 2.73 7.61 1 12c1.73 4.39 6 7.5 11 7.5s9.27-3.11 11-7.5c-1.73-4.39-6-7.5-11-7.5ZM12 17c-2.76 0-5-2.24-5-5s2.24-5 5-5 5 2.24 5 5-2.24 5-5 5Zm0-8c-1.66 0-3 1.34-3 3s1.34 3 3 3 3-1.34 3-3-1.34-3-3-3Z" fill="currentColor"/></symbol>
    <symbol fill="none" id="icon-eye" viewBox="0 0 23 17"><path fill-rule="evenodd" clip-rule="evenodd" d="M22.092 10.978c-7.156 7.4-18.652 4.896-21.498 1.08A13.415 13.415 0 0 1 2.352 8.91L0 6.748l1.094-1.16 2.25 2.168a10.716 10.716 0 0 1 2.278-1.778L3.75 2.816l1.412-.8 1.832 3.3c.969-.382 1.99-.611 3.03-.68L10.062 1h1.578l-.114 3.644a11.8 11.8 0 0 1 3.272.734l1.728-3.576 1.378.6-1.6 3.628a16.027 16.027 0 0 1 2.526 1.644l2.096-2.712 1.334 1.072-2.212 2.706a21.464 21.464 0 0 1 2.044 2.238ZM5.11 8.27a11.762 11.762 0 0 0-2.092 2.322l.456 1.884a13.147 13.147 0 0 0 3.424 1.54c-1.64-1.418-2.216-3.69-1.788-5.746Zm8.84-1.588c-2.146-.716-4.286-.708-6.238.042-2.424 2.43-1.478 7.616 3.264 7.616 4.35 0 5.378-5.246 2.974-7.658Zm2.5 1.168c.514 1.95.12 4.17-1.168 5.698a20.325 20.325 0 0 0 4.832-2.672A17.152 17.152 0 0 0 16.45 7.85Zm-5.524 4.87c-3.834 0-3.66-5.478-.062-5.478 3.598 0 3.554 5.478.062 5.478Z" fill="currentColor"/></symbol>
  </defs>
</svg>