<svg aria-hidden="true" style="position:absolute;width:0;height:0;overflow:hidden" xmlns="http://www.w3.org/2000/svg">
  <defs>
    <symbol id="icon-close" viewBox="0 0 30 30" fill="none" xmlns="http://www.w3.org/2000/svg">
      <path d="M8 8L22 22" stroke-width="2"/>
      <path d="M8 22L22 8" stroke-width="2"/>
    </symbol>
    <symbol id="icon-film" viewBox="0 0 32 32">
      <path fill="none" stroke="#818181" style="stroke:var(--color1, #818181)" stroke-linejoin="round" stroke-linecap="round" stroke-width="2.667" d="M26.427 2.667H5.574a2.907 2.907 0 0 0-2.907 2.907v20.853a2.907 2.907 0 0 0 2.907 2.907v0h20.853a2.907 2.907 0 0 0 2.907-2.907v0V5.574a2.907 2.907 0 0 0-2.907-2.907v0zm-17.094 0v26.667M22.667 2.667v26.667M2.667 16h26.667M2.667 9.333h6.667M2.667 22.667h6.667m13.333 0h6.667M22.667 9.333h6.667"/>
    </symbol>
    <symbol id="icon-search" viewBox="0 0 32 32">
      <path fill="none" stroke-linejoin="round" stroke-linecap="round" stroke-width="2.667" d="M14.667 25.333c5.891 0 10.667-4.776 10.667-10.667S20.558 3.999 14.667 3.999v0C8.776 3.999 4 8.775 4 14.666s4.776 10.667 10.667 10.667v0zM28 28l-5.8-5.8"/>
    </symbol>
    <symbol id="icon-heart" viewBox="0 0 34 32">
      <path fill="#ff6b08" style="fill:var(--color3, #ff6b08)" d="m17.231 31.705-2.412-2.412C5.859 21.367.001 16.025.001 9.478.001 4.136 4.136.001 9.478.001c2.929 0 5.858 1.378 7.754 3.618 1.895-2.24 4.825-3.618 7.754-3.618 5.342 0 9.477 4.135 9.477 9.477 0 6.548-5.858 11.889-14.818 19.815l-2.412 2.412z"/>
    </symbol>
    <symbol id="icon-youtube" viewBox="0 0 32 32">
      <path fill="#f00" style="fill: var(--color1, #f00)" d="M31.327 8.273c-0.386-1.353-1.431-2.398-2.756-2.777l-0.028-0.007c-2.493-0.668-12.528-0.668-12.528-0.668s-10.009-0.013-12.528 0.668c-1.353 0.386-2.398 1.431-2.777 2.756l-0.007 0.028c-0.443 2.281-0.696 4.903-0.696 7.585 0 0.054 0 0.109 0 0.163l-0-0.008c-0 0.037-0 0.082-0 0.126 0 2.682 0.253 5.304 0.737 7.845l-0.041-0.26c0.386 1.353 1.431 2.398 2.756 2.777l0.028 0.007c2.491 0.669 12.528 0.669 12.528 0.669s10.008 0 12.528-0.669c1.353-0.386 2.398-1.431 2.777-2.756l0.007-0.028c0.425-2.233 0.668-4.803 0.668-7.429 0-0.099-0-0.198-0.001-0.297l0 0.015c0.001-0.092 0.001-0.201 0.001-0.31 0-2.626-0.243-5.196-0.708-7.687l0.040 0.258zM12.812 20.801v-9.591l8.352 4.803z">
      </path>
    </symbol>
    <symbol id="icon-twoArrowUp" viewBox="0 0 32 32">
      <path d="M26.8 17.1c-2.95-2.95-5.95-5.95-8.9-8.9-0.4-0.4-0.85-0.85-1.25-1.25s-1.050-0.4-1.4 0c-2.95 2.95-5.95 5.95-8.9 8.9-0.4 0.4-0.85 0.85-1.25 1.25-0.9 0.9 0.5 2.35 1.4 1.4 2.95-2.95 5.95-5.95 8.9-8.9 0.2-0.2 0.35-0.35 0.55-0.55 2.75 2.75 5.5 5.5 8.2 8.2 0.4 0.4 0.85 0.85 1.25 1.25 0.9 0.9 2.3-0.5 1.4-1.4z"></path>
      <path d="M17.85 15.1c-0.4-0.4-0.8-0.8-1.2-1.2s-1.050-0.4-1.4 0c-2.8 2.8-5.65 5.65-8.45 8.45-0.4 0.4-0.8 0.8-1.2 1.2-0.9 0.9 0.5 2.35 1.4 1.4 2.8-2.8 5.65-5.65 8.45-8.45 0.15-0.15 0.35-0.35 0.5-0.5 2.55 2.55 5.15 5.15 7.7 7.7 0.4 0.4 0.8 0.8 1.2 1.2 0.9 0.9 2.35-0.5 1.4-1.4-2.8-2.8-5.6-5.6-8.4-8.4z"></path>
    </symbol>
  </defs>
</svg>